<?xml version="1.0" encoding="utf-8"?>
<!-- Generator: Adobe Illustrator 24.1.1, SVG Export Plug-In . SVG Version: 6.00 Build 0)  -->
<svg version="1.1" id="Capa_1" xmlns="http://www.w3.org/2000/svg" xmlns:xlink="http://www.w3.org/1999/xlink" x="0px" y="0px"
	 viewBox="0 0 1113 1224" style="enable-background:new 0 0 1113 1224;" xml:space="preserve">
<style type="text/css">
	.st0{fill:#4285F4;}
	.st1{fill:#073042;}
</style>
<g>
	<g>
		<path class="st0" d="M897,288c0,39.8-32.2,72-72,72H378c-9.9,0-18,8.1-18,18v252c0,9.9,8.1,18,18,18h346c39.8,0,72,32.2,72,72
			s-32.2,72-72,72H378c-9.9,0-18,8.1-18,18v252c0,39.8-32.2,72-72,72s-72-32.2-72-72V234c0-9.9,8.1-18,18-18h591
			C864.8,216,897,248.2,897,288z"/>
	</g>
	<g>
		<path class="st1" d="M1113,288c0,159.1-128.9,288-288,288H450c-9.9,0-18-8.1-18-18V450c0-9.9,8.1-18,18-18h375
			c79.5,0,144-64.5,144-144s-64.5-144-144-144H162c-9.9,0-18,8.1-18,18v990c0,39.8-32.2,72-72,72s-72-32.2-72-72V18
			C0,8.1,8.1,0,18,0h807C984.1,0,1113,128.9,1113,288z"/>
	</g>
</g>
</svg>
