<?xml version="1.0" encoding="utf-8"?>
<!-- Generator: Adobe Illustrator 24.1.1, SVG Export Plug-In . SVG Version: 6.00 Build 0)  -->
<svg version="1.1" id="Capa_1" xmlns="http://www.w3.org/2000/svg" xmlns:xlink="http://www.w3.org/1999/xlink" x="0px" y="0px"
	 viewBox="0 0 5563 1224" style="enable-background:new 0 0 5563 1224;" xml:space="preserve">
<style type="text/css">
	.st0{fill:#F9FBFE;}
</style>
<g>
	<g>
		<path class="st0" d="M897,288c0,39.8-32.2,72-72,72H378c-9.9,0-18,8.1-18,18v252c0,9.9,8.1,18,18,18h346c39.8,0,72,32.2,72,72
			s-32.2,72-72,72H378c-9.9,0-18,8.1-18,18v252c0,39.8-32.2,72-72,72s-72-32.2-72-72V234c0-9.9,8.1-18,18-18h591
			C864.8,216,897,248.2,897,288z"/>
	</g>
	<g>
		<path class="st0" d="M1113,288c0,159.1-128.9,288-288,288H450c-9.9,0-18-8.1-18-18V450c0-9.9,8.1-18,18-18h375
			c79.5,0,144-64.5,144-144s-64.5-144-144-144H162c-9.9,0-18,8.1-18,18v990c0,39.8-32.2,72-72,72s-72-32.2-72-72V18
			C0,8.1,8.1,0,18,0h807C984.1,0,1113,128.9,1113,288z"/>
	</g>
</g>
<g>
	<g>
		<path class="st0" d="M1256,371.8c0-41.6,32.9-74.6,74.6-74.6H1533c161.8,0,259.6,95.9,259.6,234.4v1.9
			c0,156.9-122,238.3-274.1,238.3h-113.3v134.6c0,41.6-32.9,74.6-74.6,74.6c-41.6,0-74.6-32.9-74.6-74.6V371.8z M1523.3,639.1
			c74.6,0,118.2-44.6,118.2-102.7v-1.9c0-66.8-46.5-102.7-121.1-102.7h-115.3v207.3H1523.3z"/>
		<path class="st0" d="M1330.6,995.3c-49.8,0-88.9-39-88.9-88.9V371.8c0-49.8,39-88.9,88.9-88.9H1533c82.1,0,151.3,23.9,200.2,69.1
			c48.2,44.6,73.7,106.7,73.7,179.6v1.9c0,78.7-29.5,144.1-85.4,189.1c-51.5,41.5-121.7,63.5-203.1,63.5h-99v120.3
			C1419.5,956.3,1380.4,995.3,1330.6,995.3z M1330.6,311.5c-33.8,0-60.3,26.5-60.3,60.3v534.6c0,33.8,26.5,60.3,60.3,60.3
			c33.8,0,60.3-26.5,60.3-60.3V757.5h127.6c157.8,0,259.8-87.9,259.8-224v-1.9c0-133.7-96.3-220.1-245.3-220.1H1330.6z
			 M1523.3,653.4h-132.5V417.5h129.6c84.8,0,135.4,43.7,135.4,117v1.9C1655.8,606.4,1602.6,653.4,1523.3,653.4z M1419.5,624.8h103.9
			c63.1,0,103.9-34.7,103.9-88.4v-1.9c0-76.9-66.9-88.4-106.8-88.4h-100.9V624.8z"/>
	</g>
	<g>
		<path class="st0" d="M2090,986.8c-155.9,0-271.2-109.4-271.2-268.3v-1.9c0-148.2,105.6-270.2,256.7-270.2
			c173.4,0,249.9,142.4,249.9,249.9c0,42.6-30,70.7-68.8,70.7H1965c14.5,66.8,61,101.7,126.9,101.7c40.7,0,74.6-12.6,104.6-34.9
			c10.7-7.7,20.3-11.6,35.8-11.6c32.9,0,57.1,25.2,57.1,58.1c0,19.4-8.7,33.9-19.4,43.6C2224.6,962.6,2165.5,986.8,2090,986.8z
			 M2184.9,675c-8.7-65.9-47.5-110.4-109.4-110.4c-61,0-100.7,43.6-112.4,110.4H2184.9z"/>
		<path class="st0" d="M2090,1001.1c-79.7,0-152.2-27.9-204.1-78.7c-52.5-51.3-81.4-123.8-81.4-203.9v-1.9
			c0-76.5,26.8-147.7,75.5-200.4c50.1-54.3,119.5-84.1,195.5-84.1c104.3,0,166.9,48.8,201,89.8c39.6,47.6,63.2,112.8,63.2,174.4
			c0,49.3-34.9,85-83.1,85h-272.8c16.3,47.9,53.4,73.1,108.1,73.1c35.6,0,67-10.5,96.1-32.1c14.1-10.3,27-14.4,44.4-14.4
			c40.7,0,71.5,31.1,71.5,72.4c0,20.8-8.5,40.1-24.1,54.2l-0.3,0.3C2227.6,978.8,2163.9,1001.1,2090,1001.1z M2075.4,460.7
			c-138.2,0-242.4,110-242.4,255.9v1.9c0,149.5,105.6,254,256.9,254c66.9,0,124.3-20,170.7-59.4c6.7-6.1,14.5-16.7,14.5-32.8
			c0-25.4-18-43.8-42.8-43.8c-12.8,0-19.5,3.1-27.4,8.9c-34.1,25.3-71.1,37.6-113,37.6c-73.9,0-125.3-41.2-140.9-113l-3.8-17.3
			h309.3c32.1,0,54.5-23.2,54.5-56.4C2311,605.2,2247,460.7,2075.4,460.7z M2201.2,689.3h-255.1l2.9-16.8
			c13.3-76.6,60.6-122.3,126.5-122.3c66.2,0,113.6,47.1,123.6,122.8L2201.2,689.3z M1980.8,660.6h187
			c-11.8-52.2-44.8-81.8-92.4-81.8C2028.7,578.8,1994.9,608.4,1980.8,660.6z"/>
	</g>
	<g>
		<path class="st0" d="M2921,907.4c0,40.7-32.9,73.6-73.6,73.6c-40.7,0-73.6-32.9-73.6-73.6v-6.8c-35.8,48.4-85.2,84.3-161.8,84.3
			c-121.1,0-236.3-94.9-236.3-268.3v-1.9c0-173.4,113.3-268.3,236.3-268.3c78.5,0,126.9,35.8,161.8,77.5V336
			c0-40.7,32.9-73.6,73.6-73.6c40.7,0,73.6,32.9,73.6,73.6V907.4z M2522.9,714.7v1.9c0,86.2,58.1,143.3,126.9,143.3
			c68.8,0,125.9-57.1,125.9-143.3v-1.9c0-86.2-57.1-143.3-125.9-143.3C2581,571.3,2522.9,627.5,2522.9,714.7z"/>
		<path class="st0" d="M2612,999.2c-124.6,0-250.6-97.1-250.6-282.6v-1.9c0-85.1,26.3-157.4,76-209.1
			c45.6-47.4,107.6-73.5,174.6-73.5c57.5,0,106.1,18.4,147.4,56.1V336c0-48.5,39.4-87.9,87.9-87.9c48.5,0,87.9,39.4,87.9,87.9v571.5
			c0,48.5-39.4,87.9-87.9,87.9c-38.9,0-72-25.4-83.6-60.5C2722.7,978.1,2672.8,999.2,2612,999.2z M2612,460.7
			c-106.9,0-222,79.5-222,254v1.9c0,166.7,111.7,254,222,254c62.9,0,110.6-24.9,150.2-78.5l25.8-34.9v50.2
			c0,32.7,26.6,59.3,59.3,59.3c32.7,0,59.3-26.6,59.3-59.3V336c0-32.7-26.6-59.3-59.3-59.3c-32.7,0-59.3,26.6-59.3,59.3v227.3
			l-25.3-30.2C2721.5,483.7,2673.5,460.7,2612,460.7z M2649.8,874.3c-80.5,0-141.2-67.8-141.2-157.7v-1.9
			c0-44.7,14.7-85.3,41.5-114.1c26-28.1,61.5-43.6,99.7-43.6c79.9,0,140.2,67.8,140.2,157.7v1.9
			C2790,806.5,2729.7,874.3,2649.8,874.3z M2649.8,585.6c-65.2,0-112.6,54.3-112.6,129v1.9c0,73.6,48.4,129,112.6,129
			c64.7,0,111.6-54.3,111.6-129v-1.9C2761.4,639.9,2714.5,585.6,2649.8,585.6z"/>
	</g>
	<g>
		<path class="st0" d="M3020.7,523.9c0-40.7,32.9-73.6,73.6-73.6c40.7,0,73.6,32.9,73.6,73.6v383.6c0,40.7-32.9,73.6-73.6,73.6
			c-40.7,0-73.6-32.9-73.6-73.6V523.9z M3053.7,379.5c0-8.7,4.8-18.4,9.7-26.2l53.3-83.3c12.6-20.3,31-32.9,55.2-32.9
			c35.8,0,82.3,22.3,82.3,44.6c0,13.6-7.7,24.2-19.4,34.9l-60.1,56.2c-28.1,26.2-51.3,32-84.3,32
			C3069.2,404.7,3053.7,395,3053.7,379.5z"/>
		<path class="st0" d="M3094.4,995.3c-48.5,0-87.9-39.4-87.9-87.9V523.9c0-48.5,39.4-87.9,87.9-87.9c48.5,0,87.9,39.4,87.9,87.9
			v383.6C3182.3,955.9,3142.8,995.3,3094.4,995.3z M3094.4,464.6c-32.7,0-59.3,26.6-59.3,59.3v383.6c0,32.7,26.6,59.3,59.3,59.3
			c32.7,0,59.3-26.6,59.3-59.3V523.9C3153.7,491.2,3127.1,464.6,3094.4,464.6z M3090.5,419c-30.1,0-51.1-16.2-51.1-39.5
			c0-9.9,3.9-21,11.9-33.7l53.4-83.4c16-25.8,39.3-39.5,67.3-39.5c38.9,0,96.6,24.7,96.6,58.9c0,20.7-12.8,35.2-24,45.4l-59.9,56.1
			C3152.5,413,3124.8,419,3090.5,419z M3171.8,251.5c-17.8,0-32.3,8.8-43,26.2l-53.4,83.5c-6.5,10.3-7.4,16-7.4,18.4
			c0,7.1,11.3,10.9,22.5,10.9c29.4,0,49-4.4,74.5-28.1l60-56.2c10.6-9.7,14.8-16.7,14.8-24.4
			C3239.9,272.2,3205.7,251.5,3171.8,251.5z"/>
	</g>
	<g>
		<path class="st0" d="M3535,371.8c0-41.6,32.9-74.6,74.6-74.6h379.7c37.8,0,67.8,30,67.8,67.8c0,37.8-30,67.8-67.8,67.8h-305.1
			v144.3h261.5c37.8,0,67.8,30,67.8,67.8s-30,67.8-67.8,67.8h-261.5v193.7c0,41.6-32.9,74.6-74.6,74.6c-41.6,0-74.6-32.9-74.6-74.6
			V371.8z"/>
		<path class="st0" d="M3609.6,995.3c-49.8,0-88.9-39-88.9-88.9V371.8c0-49.8,39-88.9,88.9-88.9h379.7c46,0,82.1,36.1,82.1,82.1
			s-36.1,82.1-82.1,82.1h-290.8v115.7h247.2c46,0,82.1,36.1,82.1,82.1s-36.1,82.1-82.1,82.1h-247.2v179.4
			C3698.5,956.3,3659.5,995.3,3609.6,995.3z M3609.6,311.5c-33.8,0-60.3,26.5-60.3,60.3v534.6c0,33.8,26.5,60.3,60.3,60.3
			c33.8,0,60.3-26.5,60.3-60.3v-208h275.8c30,0,53.5-23.5,53.5-53.5c0-30-23.5-53.5-53.5-53.5h-275.8V418.5h319.4
			c30,0,53.5-23.5,53.5-53.5c0-30-23.5-53.5-53.5-53.5H3609.6z"/>
	</g>
	<g>
		<path class="st0" d="M4061,826.1v-1.9c0-113.3,86.2-165.6,209.2-165.6c52.3,0,90.1,8.7,126.9,21.3v-8.7c0-61-37.8-94.9-111.4-94.9
			c-40.7,0-73.6,5.8-101.7,14.5c-8.7,2.9-14.5,3.9-21.3,3.9c-33.9,0-61-26.1-61-60.1c0-26.2,16.5-48.4,39.7-57.1
			c46.5-17.4,96.9-27.1,165.6-27.1c80.4,0,138.5,21.3,175.3,58.1c38.7,38.7,56.2,95.9,56.2,165.6v236.3c0,39.7-32,70.7-71.7,70.7
			c-42.6,0-70.7-30-70.7-61v-1c-35.8,39.7-85.2,65.9-156.9,65.9C4141.4,984.9,4061,928.7,4061,826.1z M4399,792.2V766
			c-25.2-11.6-58.1-19.4-94-19.4c-63,0-101.7,25.2-101.7,71.7v1.9c0,39.7,32.9,63,80.4,63C4352.5,883.2,4399,845.4,4399,792.2z
			 M4274.1,379.5c0-8.7,4.8-18.4,9.7-26.2l53.3-83.3c12.6-20.3,31-32.9,55.2-32.9c35.8,0,82.3,22.3,82.3,44.6
			c0,13.6-7.7,24.2-19.4,34.9l-60.1,56.2c-28.1,26.2-51.3,32-84.3,32C4289.5,404.7,4274.1,395,4274.1,379.5z"/>
		<path class="st0" d="M4239.2,999.2c-52.7,0-100.6-15.7-134.9-44.2c-37.7-31.3-57.6-75.9-57.6-128.9v-1.9
			c0-58.5,22.2-105.8,64.3-136.8c38.2-28.2,93.3-43.1,159.2-43.1c47.7,0,83.3,7.3,112.1,15.8c-4.3-46.2-36.8-69.5-96.6-69.5
			c-35.4,0-67.3,4.5-97.3,13.8c-9.9,3.3-17.1,4.6-25.7,4.6c-42.2,0-75.3-32.7-75.3-74.4c0-31.2,19.7-59.6,49-70.5
			c51.7-19.4,104.3-28,170.7-28c81.7,0,144.1,21,185.4,62.3c40.1,40.1,60.4,99.2,60.4,175.7v236.3c0,47.7-37.8,85-86,85
			c-39.9,0-67.7-21.5-79.2-47.9C4347.9,982.2,4299.1,999.2,4239.2,999.2z M4270.2,672.8c-72.8,0-194.9,19.7-194.9,151.3v1.9
			c0,99.8,82.3,144.5,163.9,144.5c61.3,0,109.2-20,146.3-61.1l24.9-27.6V920c0,22.5,21.6,46.7,56.4,46.7c32.2,0,57.4-24.8,57.4-56.4
			V674c0-68.7-17.5-121-52-155.5c-35.8-35.8-91.4-53.9-165.2-53.9c-62.7,0-112.3,8.1-160.6,26.2c-18.2,6.8-30.4,24.4-30.4,43.7
			c0,25.6,20.5,45.7,46.7,45.7c4.7,0,8.9-0.5,16.8-3.1l0.3-0.1c32.9-10.2,67.5-15.2,105.9-15.2c81.1,0,125.7,38.8,125.7,109.2v28.7
			l-18.9-6.5C4361.3,682.7,4324.9,672.8,4270.2,672.8z M4283.7,897.5c-57.5,0-94.7-30.3-94.7-77.3v-1.9c0-53.8,43.4-86,116-86
			c35.5,0,71,7.3,99.9,20.7l8.3,3.8v35.3C4413.3,854.2,4360,897.5,4283.7,897.5z M4305,760.9c-32.6,0-87.4,7.5-87.4,57.4v1.9
			c0,35.9,34.1,48.7,66.1,48.7c60.4,0,101-30.8,101-76.7v-16.7C4361.1,766.1,4333.2,760.9,4305,760.9z M4310.9,419
			c-30.1,0-51.1-16.2-51.1-39.5c0-9.9,3.9-21,11.9-33.7l53.4-83.4c16-25.8,39.3-39.5,67.3-39.5c38.9,0,96.6,24.7,96.6,58.9
			c0,20.7-12.8,35.2-24,45.4l-59.9,56.1C4372.9,413,4345.2,419,4310.9,419z M4392.2,251.5c-17.8,0-32.3,8.8-43,26.2l-53.4,83.5
			c-6.5,10.3-7.4,16-7.4,18.4c0,7.1,11.3,10.9,22.5,10.9c29.4,0,49-4.4,74.5-28.1l60-56.2c10.6-9.7,14.8-16.7,14.8-24.4
			C4460.2,272.2,4426.1,251.5,4392.2,251.5z"/>
	</g>
	<g>
		<path class="st0" d="M4601.4,718.5v-1.9c0-148.2,113.3-270.2,272.2-270.2c78.5,0,133.7,21.3,177.2,58.1
			c9.7,7.7,23.2,25.2,23.2,50.4c0,36.8-30,65.9-66.8,65.9c-19.4,0-33.9-7.7-42.6-14.5c-26.2-20.3-53.3-32.9-92-32.9
			c-73.6,0-125.9,64.9-125.9,141.4v1.9c0,79.4,51.3,143.3,131.7,143.3c38.7,0,68.8-13.6,96.9-35.8c7.7-5.8,22.3-13.6,39.7-13.6
			c34.9,0,62,28.1,62,63c0,19.4-8.7,34.9-21.3,46.5c-43.6,39.7-98.8,66.8-184,66.8C4715.7,986.8,4601.4,866.7,4601.4,718.5z"/>
		<path class="st0" d="M4871.7,1001.1c-78.5,0-150.9-29.4-203.8-82.8c-52.1-52.6-80.8-123.6-80.8-199.8v-1.9
			c0-76.5,28.6-147.8,80.6-200.7c53.1-54.1,126.2-83.8,205.9-83.8c77.5,0,136.7,19.5,186.3,61.4c13.8,11.1,28.5,33,28.5,61.4
			c0,44.2-36.4,80.2-81.1,80.2c-25.1,0-43-11-51.4-17.5c-27.3-21.3-51.4-29.9-83.2-29.9c-62.6,0-111.6,55.8-111.6,127.1v1.9
			c0,76,48.3,129,117.4,129c32.3,0,59.4-10.1,88-32.7l0.3-0.2c6.6-4.9,24.5-16.4,48.3-16.4c42.8,0,76.3,33.9,76.3,77.3
			c0,21.6-9,41.4-25.9,57C5012.5,978.7,4951,1001.1,4871.7,1001.1z M4873.6,460.7c-147,0-257.9,110-257.9,255.9v1.9
			c0,144.8,110,254,255.9,254c72.7,0,126.5-19.5,174.4-63.1c11-10.2,16.6-22.3,16.6-35.9c0-27.3-20.9-48.6-47.7-48.6
			c-15.4,0-27.5,8-31,10.6c-33.4,26.5-67,38.8-105.6,38.8c-84.6,0-146-66.3-146-157.7v-1.9c0-87.3,61.6-155.7,140.2-155.7
			c38.3,0,68.4,10.8,100.8,35.9c5.5,4.3,17.3,11.5,33.8,11.5c29,0,52.5-23.1,52.5-51.6c0-23.7-14.9-36.8-17.9-39.2l-0.3-0.2
			C4997.4,478.1,4944,460.7,4873.6,460.7z"/>
	</g>
	<g>
		<path class="st0" d="M5139,332.1c0-42.6,35.8-68.8,82.3-68.8c46.5,0,82.3,26.2,82.3,68.8v1.9c0,42.6-35.8,69.7-82.3,69.7
			c-46.5,0-82.3-27.1-82.3-69.7V332.1z M5147.7,523.9c0-40.7,32.9-73.6,73.6-73.6c40.7,0,73.6,32.9,73.6,73.6v383.6
			c0,40.7-32.9,73.6-73.6,73.6c-40.7,0-73.6-32.9-73.6-73.6V523.9z"/>
		<path class="st0" d="M5221.3,995.3c-48.5,0-87.9-39.4-87.9-87.9V523.9c0-48.5,39.4-87.9,87.9-87.9c48.5,0,87.9,39.4,87.9,87.9
			v383.6C5309.2,955.9,5269.8,995.3,5221.3,995.3z M5221.3,464.6c-32.7,0-59.3,26.6-59.3,59.3v383.6c0,32.7,26.6,59.3,59.3,59.3
			c32.7,0,59.3-26.6,59.3-59.3V523.9C5280.6,491.2,5254,464.6,5221.3,464.6z M5221.3,418.1c-56,0-96.6-35.3-96.6-84v-1.9
			c0-48.9,39.7-83.1,96.6-83.1c56.9,0,96.6,34.2,96.6,83.1v1.9C5318,382.7,5277.3,418.1,5221.3,418.1z M5221.3,277.6
			c-33.9,0-68,16.8-68,54.5v1.9c0,38.3,34.2,55.4,68,55.4c33.9,0,68-17.1,68-55.4v-1.9C5289.3,294.5,5255.2,277.6,5221.3,277.6z"/>
	</g>
	<g>
		<path class="st0" d="M5401.5,336c0-40.7,32.9-73.6,73.6-73.6c40.7,0,73.6,32.9,73.6,73.6v571.5c0,40.7-32.9,73.6-73.6,73.6
			c-40.7,0-73.6-32.9-73.6-73.6V336z"/>
		<path class="st0" d="M5475.1,995.3c-48.5,0-87.9-39.4-87.9-87.9V336c0-48.5,39.4-87.9,87.9-87.9s87.9,39.4,87.9,87.9v571.5
			C5563,955.9,5523.6,995.3,5475.1,995.3z M5475.1,276.7c-32.7,0-59.3,26.6-59.3,59.3v571.5c0,32.7,26.6,59.3,59.3,59.3
			s59.3-26.6,59.3-59.3V336C5534.4,303.3,5507.8,276.7,5475.1,276.7z"/>
	</g>
</g>
</svg>
