<?xml version="1.0" encoding="utf-8"?>
<!-- Generator: Adobe Illustrator 24.1.1, SVG Export Plug-In . SVG Version: 6.00 Build 0)  -->
<svg version="1.1" id="Capa_1" xmlns="http://www.w3.org/2000/svg" xmlns:xlink="http://www.w3.org/1999/xlink" x="0px" y="0px"
	 viewBox="0 0 1500 1500" style="enable-background:new 0 0 1500 1500;" xml:space="preserve">
<style type="text/css">
	.st0{fill:#F9FBFE;}
</style>
<g>
	<g>
		<path class="st0" d="M1090.5,288c0,39.8-32.2,72-72,72h-447c-9.9,0-18,8.1-18,18v252c0,9.9,8.1,18,18,18h346c39.8,0,72,32.2,72,72
			s-32.2,72-72,72h-346c-9.9,0-18,8.1-18,18v252c0,39.8-32.2,72-72,72s-72-32.2-72-72V234c0-9.9,8.1-18,18-18h591
			C1058.3,216,1090.5,248.2,1090.5,288z"/>
	</g>
	<g>
		<path class="st0" d="M1306.5,288c0,159.1-128.9,288-288,288h-375c-9.9,0-18-8.1-18-18V450c0-9.9,8.1-18,18-18h375
			c79.5,0,144-64.5,144-144s-64.5-144-144-144h-663c-9.9,0-18,8.1-18,18v990c0,39.8-32.2,72-72,72s-72-32.2-72-72V18
			c0-9.9,8.1-18,18-18h807C1177.6,0,1306.5,128.9,1306.5,288z"/>
	</g>
	<g>
		<path class="st0" d="M5,1281.6c0-14.5,11.4-25.9,25.9-25.9h70.3c56.1,0,90.1,33.3,90.1,81.4v0.7c0,54.5-42.4,82.7-95.1,82.7H56.7
			v46.7c0,14.5-11.4,25.9-25.9,25.9c-14.5,0-25.9-11.4-25.9-25.9V1281.6z M97.8,1374.4c25.9,0,41-15.5,41-35.6v-0.7
			c0-23.2-16.1-35.6-42-35.6h-40v71.9H97.8z"/>
		<path class="st0" d="M30.9,1498.1c-17.3,0-30.9-13.6-30.9-30.9v-185.6c0-17.3,13.6-30.9,30.9-30.9h70.3c28.5,0,52.5,8.3,69.5,24
			c16.7,15.5,25.6,37,25.6,62.4v0.7c0,27.3-10.2,50-29.6,65.6c-17.9,14.4-42.2,22-70.5,22H61.7v41.8
			C61.7,1484.5,48.2,1498.1,30.9,1498.1z M30.9,1260.7c-11.7,0-20.9,9.2-20.9,20.9v185.6c0,11.7,9.2,20.9,20.9,20.9
			s20.9-9.2,20.9-20.9v-51.7h44.3c54.8,0,90.2-30.5,90.2-77.7v-0.7c0-46.4-33.4-76.4-85.1-76.4H30.9z M97.8,1379.4h-46v-81.9h45
			c29.4,0,47,15.2,47,40.6v0.7C143.7,1363.1,125.3,1379.4,97.8,1379.4z M61.7,1369.5h36c21.9,0,36.1-12,36.1-30.7v-0.7
			c0-26.7-23.2-30.7-37.1-30.7h-35V1369.5z"/>
	</g>
	<g>
		<path class="st0" d="M294.4,1495.1c-54.1,0-94.1-38-94.1-93.1v-0.7c0-51.4,36.6-93.8,89.1-93.8c60.2,0,86.7,49.4,86.7,86.7
			c0,14.8-10.4,24.5-23.9,24.5H251.1c5,23.2,21.2,35.3,44,35.3c14.1,0,25.9-4.4,36.3-12.1c3.7-2.7,7.1-4,12.4-4
			c11.4,0,19.8,8.7,19.8,20.2c0,6.7-3,11.8-6.7,15.1C341.2,1486.7,320.7,1495.1,294.4,1495.1z M327.4,1386.9
			c-3-22.9-16.5-38.3-38-38.3c-21.2,0-35,15.1-39,38.3H327.4z"/>
		<path class="st0" d="M294.4,1500.1c-27.7,0-52.8-9.7-70.8-27.3c-18.2-17.8-28.3-43-28.3-70.8v-0.7c0-26.6,9.3-51.3,26.2-69.6
			c17.4-18.8,41.5-29.2,67.9-29.2c36.2,0,57.9,16.9,69.8,31.2c13.7,16.5,22,39.2,22,60.5c0,17.1-12.1,29.5-28.8,29.5h-94.7
			c5.7,16.6,18.5,25.4,37.5,25.4c12.4,0,23.3-3.6,33.4-11.1c4.9-3.6,9.4-5,15.4-5c14.1,0,24.8,10.8,24.8,25.1c0,7.2-3,13.9-8.4,18.8
			l-0.1,0.1C342.2,1492.3,320.1,1500.1,294.4,1500.1z M289.4,1312.5c-48,0-84.1,38.2-84.1,88.8v0.7c0,51.9,36.7,88.2,89.2,88.2
			c23.2,0,43.1-6.9,59.3-20.6c2.3-2.1,5-5.8,5-11.4c0-8.8-6.3-15.2-14.9-15.2c-4.4,0-6.8,1.1-9.5,3.1c-11.8,8.8-24.7,13.1-39.2,13.1
			c-25.7,0-43.5-14.3-48.9-39.2l-1.3-6h107.4c11.1,0,18.9-8,18.9-19.6C371.2,1362.6,349,1312.5,289.4,1312.5z M333.1,1391.8h-88.6
			l1-5.8c4.6-26.6,21-42.4,43.9-42.4c23,0,39.4,16.3,42.9,42.6L333.1,1391.8z M256.6,1381.9h64.9c-4.1-18.1-15.6-28.4-32.1-28.4
			C273.2,1353.5,261.4,1363.8,256.6,1381.9z"/>
	</g>
	<g>
		<path class="st0" d="M582.9,1467.5c0,14.1-11.4,25.6-25.6,25.6c-14.1,0-25.6-11.4-25.6-25.6v-2.4c-12.4,16.8-29.6,29.2-56.1,29.2
			c-42,0-82-32.9-82-93.1v-0.7c0-60.2,39.3-93.1,82-93.1c27.2,0,44,12.4,56.1,26.9v-65.2c0-14.1,11.4-25.6,25.6-25.6
			c14.1,0,25.6,11.4,25.6,25.6V1467.5z M444.7,1400.6v0.7c0,29.9,20.2,49.8,44,49.8s43.7-19.8,43.7-49.8v-0.7
			c0-29.9-19.8-49.8-43.7-49.8S444.7,1370.4,444.7,1400.6z"/>
		<path class="st0" d="M475.7,1499.4c-43.2,0-87-33.7-87-98.1v-0.7c0-29.5,9.1-54.6,26.4-72.6c15.8-16.5,37.4-25.5,60.6-25.5
			c20,0,36.8,6.4,51.2,19.5v-52.8c0-16.8,13.7-30.5,30.5-30.5c16.8,0,30.5,13.7,30.5,30.5v198.4c0,16.8-13.7,30.5-30.5,30.5
			c-13.5,0-25-8.8-29-21C514.1,1492.1,496.7,1499.4,475.7,1499.4z M475.7,1312.5c-37.1,0-77.1,27.6-77.1,88.2v0.7
			c0,57.9,38.8,88.2,77.1,88.2c21.8,0,38.4-8.7,52.2-27.2l9-12.1v17.4c0,11.4,9.2,20.6,20.6,20.6c11.4,0,20.6-9.2,20.6-20.6v-198.4
			c0-11.4-9.2-20.6-20.6-20.6c-11.4,0-20.6,9.2-20.6,20.6v78.9l-8.8-10.5C513.7,1320.5,497,1312.5,475.7,1312.5z M488.8,1456
			c-27.9,0-49-23.5-49-54.7v-0.7c0-15.5,5.1-29.6,14.4-39.6c9-9.8,21.3-15.1,34.6-15.1c27.7,0,48.7,23.5,48.7,54.7v0.7
			C537.4,1432.5,516.5,1456,488.8,1456z M488.8,1355.9c-22.6,0-39.1,18.8-39.1,44.8v0.7c0,25.5,16.8,44.8,39.1,44.8
			c22.4,0,38.7-18.8,38.7-44.8v-0.7C527.5,1374.7,511.2,1355.9,488.8,1355.9z"/>
	</g>
	<g>
		<path class="st0" d="M617.5,1334.4c0-14.1,11.4-25.6,25.6-25.6s25.6,11.4,25.6,25.6v133.1c0,14.1-11.4,25.6-25.6,25.6
			s-25.6-11.4-25.6-25.6V1334.4z M629,1284.3c0-3,1.7-6.4,3.4-9.1l18.5-28.9c4.4-7.1,10.8-11.4,19.2-11.4c12.4,0,28.6,7.7,28.6,15.5
			c0,4.7-2.7,8.4-6.7,12.1L671,1282c-9.8,9.1-17.8,11.1-29.3,11.1C634.3,1293.1,629,1289.7,629,1284.3z"/>
		<path class="st0" d="M643.1,1498.1c-16.8,0-30.5-13.7-30.5-30.5v-133.1c0-16.8,13.7-30.5,30.5-30.5c16.8,0,30.5,13.7,30.5,30.5
			v133.1C673.6,1484.4,659.9,1498.1,643.1,1498.1z M643.1,1313.8c-11.4,0-20.6,9.2-20.6,20.6v133.1c0,11.4,9.2,20.6,20.6,20.6
			c11.4,0,20.6-9.2,20.6-20.6v-133.1C663.7,1323.1,654.4,1313.8,643.1,1313.8z M641.7,1298c-10.4,0-17.7-5.6-17.7-13.7
			c0-3.4,1.3-7.3,4.1-11.7l18.5-29c5.5-9,13.6-13.7,23.3-13.7c13.5,0,33.5,8.6,33.5,20.4c0,7.2-4.5,12.2-8.3,15.8l-20.8,19.5
			C663.3,1295.9,653.7,1298,641.7,1298z M670,1239.9c-6.2,0-11.2,3.1-14.9,9.1l-18.5,29c-2.2,3.6-2.6,5.6-2.6,6.4
			c0,2.5,3.9,3.8,7.8,3.8c10.2,0,17-1.5,25.9-9.8l20.8-19.5c3.7-3.4,5.1-5.8,5.1-8.5C693.6,1247.1,681.7,1239.9,670,1239.9z"/>
	</g>
	<g>
		<path class="st0" d="M796.1,1281.6c0-14.5,11.4-25.9,25.9-25.9h131.8c13.1,0,23.5,10.4,23.5,23.5c0,13.1-10.4,23.5-23.5,23.5
			H847.8v50.1h90.8c13.1,0,23.5,10.4,23.5,23.5c0,13.1-10.4,23.5-23.5,23.5h-90.8v67.2c0,14.5-11.4,25.9-25.9,25.9
			s-25.9-11.4-25.9-25.9V1281.6z"/>
		<path class="st0" d="M821.9,1498.1c-17.3,0-30.9-13.6-30.9-30.9v-185.6c0-17.3,13.6-30.9,30.9-30.9h131.8
			c16,0,28.5,12.5,28.5,28.5s-12.5,28.5-28.5,28.5H852.8v40.2h85.8c16,0,28.5,12.5,28.5,28.5s-12.5,28.5-28.5,28.5h-85.8v62.3
			C852.8,1484.5,839.2,1498.1,821.9,1498.1z M821.9,1260.7c-11.7,0-20.9,9.2-20.9,20.9v185.6c0,11.7,9.2,20.9,20.9,20.9
			c11.7,0,20.9-9.2,20.9-20.9V1395h95.7c10.4,0,18.6-8.2,18.6-18.6c0-10.4-8.2-18.6-18.6-18.6h-95.7v-60h110.9
			c10.4,0,18.6-8.2,18.6-18.6c0-10.4-8.2-18.6-18.6-18.6H821.9z"/>
	</g>
	<g>
		<path class="st0" d="M978.6,1439.3v-0.7c0-39.3,29.9-57.5,72.6-57.5c18.2,0,31.3,3,44,7.4v-3c0-21.2-13.1-32.9-38.7-32.9
			c-14.1,0-25.6,2-35.3,5c-3,1-5,1.3-7.4,1.3c-11.8,0-21.2-9.1-21.2-20.8c0-9.1,5.7-16.8,13.8-19.8c16.1-6.1,33.6-9.4,57.5-9.4
			c27.9,0,48.1,7.4,60.9,20.2c13.4,13.4,19.5,33.3,19.5,57.5v82c0,13.8-11.1,24.5-24.9,24.5c-14.8,0-24.5-10.4-24.5-21.2v-0.3
			c-12.4,13.8-29.6,22.9-54.5,22.9C1006.5,1494.4,978.6,1474.9,978.6,1439.3z M1096,1427.5v-9.1c-8.7-4-20.2-6.7-32.6-6.7
			c-21.9,0-35.3,8.7-35.3,24.9v0.7c0,13.8,11.4,21.9,27.9,21.9C1079.8,1459.1,1096,1446,1096,1427.5z M1052.6,1284.3
			c0-3,1.7-6.4,3.4-9.1l18.5-28.9c4.4-7.1,10.8-11.4,19.2-11.4c12.4,0,28.6,7.7,28.6,15.5c0,4.7-2.7,8.4-6.7,12.1l-20.8,19.5
			c-9.7,9.1-17.8,11.1-29.2,11.1C1058,1293.1,1052.6,1289.7,1052.6,1284.3z"/>
		<path class="st0" d="M1040.5,1499.4c-18.3,0-34.9-5.5-46.8-15.4c-13.1-10.9-20-26.3-20-44.8v-0.7c0-20.3,7.7-36.7,22.3-47.5
			c13.3-9.8,32.4-15,55.3-15c16.5,0,28.9,2.5,38.9,5.5c-1.5-16-12.8-24.1-33.5-24.1c-12.3,0-23.3,1.6-33.8,4.8
			c-3.4,1.1-5.9,1.6-8.9,1.6c-14.7,0-26.1-11.3-26.1-25.8c0-10.8,6.8-20.7,17-24.5c17.9-6.7,36.2-9.7,59.2-9.7
			c28.4,0,50,7.3,64.4,21.6c13.9,13.9,21,34.4,21,61v82c0,16.5-13.1,29.5-29.8,29.5c-13.8,0-23.5-7.5-27.5-16.6
			C1078.2,1493.5,1061.3,1499.4,1040.5,1499.4z M1051.2,1386.1c-25.3,0-67.7,6.8-67.7,52.5v0.7c0,34.7,28.6,50.2,56.9,50.2
			c21.3,0,37.9-6.9,50.8-21.2l8.7-9.6v13.3c0,7.8,7.5,16.2,19.6,16.2c11.2,0,19.9-8.6,19.9-19.6v-82c0-23.8-6.1-42-18-54
			c-12.4-12.4-31.7-18.7-57.3-18.7c-21.8,0-39,2.8-55.7,9.1c-6.3,2.4-10.6,8.5-10.6,15.2c0,8.9,7.1,15.9,16.2,15.9
			c1.6,0,3.1-0.2,5.8-1.1l0.1,0c11.4-3.5,23.4-5.3,36.8-5.3c28.1,0,43.6,13.5,43.6,37.9v10l-6.6-2.2
			C1082.9,1389.5,1070.2,1386.1,1051.2,1386.1z M1055.9,1464.1c-20,0-32.9-10.5-32.9-26.8v-0.7c0-18.7,15.1-29.8,40.3-29.8
			c12.3,0,24.7,2.6,34.7,7.2l2.9,1.3v12.3C1100.9,1449.1,1082.4,1464.1,1055.9,1464.1z M1063.3,1416.7c-11.3,0-30.3,2.6-30.3,19.9
			v0.7c0,12.5,11.8,16.9,22.9,16.9c21,0,35-10.7,35-26.6v-5.8C1082.8,1418.5,1073.1,1416.7,1063.3,1416.7z M1065.4,1298
			c-10.4,0-17.7-5.6-17.7-13.7c0-3.4,1.3-7.3,4.1-11.7l18.5-29c5.5-9,13.6-13.7,23.3-13.7c13.5,0,33.5,8.6,33.5,20.4
			c0,7.2-4.5,12.2-8.3,15.8l-20.8,19.5C1086.9,1295.9,1077.3,1298,1065.4,1298z M1093.6,1239.9c-6.2,0-11.2,3.1-14.9,9.1l-18.5,29
			c-2.2,3.6-2.6,5.6-2.6,6.4c0,2.5,3.9,3.8,7.8,3.8c10.2,0,17-1.5,25.9-9.8l20.8-19.5c3.7-3.4,5.2-5.8,5.2-8.5
			C1117.2,1247.1,1105.4,1239.9,1093.6,1239.9z"/>
	</g>
	<g>
		<path class="st0" d="M1166.2,1402v-0.7c0-51.4,39.3-93.8,94.5-93.8c27.2,0,46.4,7.4,61.5,20.2c3.4,2.7,8.1,8.7,8.1,17.5
			c0,12.8-10.4,22.9-23.2,22.9c-6.7,0-11.8-2.7-14.8-5c-9.1-7.1-18.5-11.4-31.9-11.4c-25.6,0-43.7,22.5-43.7,49.1v0.7
			c0,27.6,17.8,49.8,45.7,49.8c13.4,0,23.9-4.7,33.6-12.4c2.7-2,7.7-4.7,13.8-4.7c12.1,0,21.5,9.7,21.5,21.9c0,6.7-3,12.1-7.4,16.1
			c-15.1,13.8-34.3,23.2-63.9,23.2C1205.9,1495.1,1166.2,1453.4,1166.2,1402z"/>
		<path class="st0" d="M1260,1500.1c-27.3,0-52.4-10.2-70.7-28.7c-18.1-18.3-28-42.9-28-69.3v-0.7c0-26.6,9.9-51.3,28-69.7
			c18.4-18.8,43.8-29.1,71.5-29.1c26.9,0,47.4,6.8,64.7,21.3c4.8,3.9,9.9,11.5,9.9,21.3c0,15.3-12.6,27.8-28.2,27.8
			c-8.7,0-14.9-3.8-17.8-6.1c-9.5-7.4-17.9-10.4-28.9-10.4c-21.7,0-38.7,19.4-38.7,44.1v0.7c0,26.4,16.8,44.8,40.8,44.8
			c11.2,0,20.6-3.5,30.5-11.4l0.1-0.1c2.3-1.7,8.5-5.7,16.8-5.7c14.9,0,26.5,11.8,26.5,26.8c0,7.5-3.1,14.4-9,19.8
			C1308.9,1492.3,1287.5,1500.1,1260,1500.1z M1260.7,1312.5c-51,0-89.5,38.2-89.5,88.8v0.7c0,50.3,38.2,88.2,88.8,88.2
			c25.2,0,43.9-6.8,60.5-21.9c3.8-3.5,5.8-7.7,5.8-12.5c0-9.5-7.3-16.9-16.5-16.9c-5.4,0-9.5,2.8-10.8,3.7
			c-11.6,9.2-23.3,13.5-36.6,13.5c-29.4,0-50.7-23-50.7-54.7v-0.7c0-30.3,21.4-54.1,48.7-54.1c13.3,0,23.7,3.7,35,12.5
			c1.9,1.5,6,4,11.7,4c10.1,0,18.2-8,18.2-17.9c0-8.2-5.2-12.8-6.2-13.6l-0.1-0.1C1303.7,1318.5,1285.1,1312.5,1260.7,1312.5z"/>
	</g>
	<g>
		<path class="st0" d="M1352.8,1267.8c0-14.8,12.4-23.9,28.6-23.9c16.1,0,28.6,9.1,28.6,23.9v0.7c0,14.8-12.4,24.2-28.6,24.2
			c-16.1,0-28.6-9.4-28.6-24.2V1267.8z M1355.8,1334.4c0-14.1,11.4-25.6,25.6-25.6c14.1,0,25.6,11.4,25.6,25.6v133.1
			c0,14.1-11.4,25.6-25.6,25.6c-14.1,0-25.6-11.4-25.6-25.6V1334.4z"/>
		<path class="st0" d="M1381.4,1498.1c-16.8,0-30.5-13.7-30.5-30.5v-133.1c0-16.8,13.7-30.5,30.5-30.5c16.8,0,30.5,13.7,30.5,30.5
			v133.1C1411.9,1484.4,1398.2,1498.1,1381.4,1498.1z M1381.4,1313.8c-11.4,0-20.6,9.2-20.6,20.6v133.1c0,11.4,9.2,20.6,20.6,20.6
			c11.4,0,20.6-9.2,20.6-20.6v-133.1C1402,1323.1,1392.7,1313.8,1381.4,1313.8z M1381.4,1297.7c-19.4,0-33.5-12.3-33.5-29.2v-0.7
			c0-17,13.8-28.8,33.5-28.8c19.8,0,33.5,11.9,33.5,28.8v0.7C1414.9,1285.4,1400.8,1297.7,1381.4,1297.7z M1381.4,1248.9
			c-11.8,0-23.6,5.8-23.6,18.9v0.7c0,13.3,11.9,19.2,23.6,19.2c11.8,0,23.6-5.9,23.6-19.2v-0.7
			C1405,1254.8,1393.1,1248.9,1381.4,1248.9z"/>
	</g>
	<g>
		<path class="st0" d="M1443.9,1269.2c0-14.1,11.4-25.6,25.6-25.6c14.1,0,25.6,11.4,25.6,25.6v198.4c0,14.1-11.4,25.6-25.6,25.6
			c-14.1,0-25.6-11.4-25.6-25.6V1269.2z"/>
		<path class="st0" d="M1469.5,1498.1c-16.8,0-30.5-13.7-30.5-30.5v-198.4c0-16.8,13.7-30.5,30.5-30.5s30.5,13.7,30.5,30.5v198.4
			C1500,1484.4,1486.3,1498.1,1469.5,1498.1z M1469.5,1248.6c-11.4,0-20.6,9.2-20.6,20.6v198.4c0,11.4,9.2,20.6,20.6,20.6
			s20.6-9.2,20.6-20.6v-198.4C1490.1,1257.8,1480.8,1248.6,1469.5,1248.6z"/>
	</g>
</g>
</svg>
